<?xml version="1.0" encoding="utf-8"?>
<!-- Generator: Adobe Illustrator 26.5.0, SVG Export Plug-In . SVG Version: 6.00 Build 0)  -->
<svg version="1.1" id="Lager_1" xmlns="http://www.w3.org/2000/svg" xmlns:xlink="http://www.w3.org/1999/xlink" x="0px" y="0px"
	 viewBox="0 0 131.8 131.8" style="enable-background:new 0 0 131.8 131.8;" xml:space="preserve">
<style type="text/css">
	.st0{fill:none;stroke:#000000;stroke-miterlimit:10;}
</style>
<g>
	<line class="st0" x1="89.2" y1="104.9" x2="114" y2="104.9"/>
	<path class="st0" d="M82.4,59.3"/>
	<path d="M83.7,40.5"/>
	<path class="st0" d="M68.6,104.9"/>
	<path d="M73.6,87.5"/>
	<g>
		<line class="st0" x1="59.4" y1="36.3" x2="47.6" y2="65.9"/>
		<g>
			<polyline class="st0" points="82.6,104 59.5,36.1 56.9,42.9 			"/>
			<path class="st0" d="M67.5,74.6"/>
			<polygon points="59.5,36.1 55.4,46.7 76,104.3 69.9,66.6 			"/>
			<path d="M68.3,62"/>
			<polygon points="70,65.9 66.8,74.5 76,104.9 83.7,104.9 			"/>
			<line class="st0" x1="67.5" y1="74.6" x2="73.5" y2="77.3"/>
		</g>
	</g>
	<line class="st0" x1="70.8" y1="5.7" x2="61" y2="30.2"/>
	<g>
		<polyline class="st0" points="104.5,103.9 71,5.3 67.1,15.2 		"/>
		<path class="st0" d="M82.6,61.2"/>
		<polygon points="71,5.3 65,20.7 94.9,104.4 86.1,49.6 		"/>
		<path d="M83.8,42.9"/>
		<polygon points="86.2,48.6 81.6,61.1 94.9,105.2 106,105.2 		"/>
		<line class="st0" x1="82.6" y1="61.2" x2="91.3" y2="65.1"/>
	</g>
	<g>
		<line x1="49.8" y1="105.2" x2="49.8" y2="104.8"/>
	</g>
	<g>
		<path d="M43.5,103.6c-0.3-0.2-0.7-0.4-1-0.7c-0.3-0.2-0.5-0.4-0.7-0.6c-1.3-1.5-1.9-3.3-1.9-5.2c0-0.2,0-0.3,0-0.5
			c0-0.5,0-0.9,0-1.4c-0.7,1.4-1.5,2.8-2.3,4.1c-0.1,0.2-0.3,0.4-0.5,0.6c-0.4,0.9-0.9,1.7-1.4,2.4c-0.7,0.9-1.5,1.5-2.5,1.9v1.1
			c1-0.1,2-0.2,3-0.3c0.9-0.1,1.9-0.1,2.9-0.1c1,0,2,0,3,0.1c1,0.1,2,0.1,2.9,0.3v-1.1C44.4,104.1,44,103.9,43.5,103.6z"/>
	</g>
	<g>
		<path d="M12,124.7H8.8c-0.2,0.5-0.4,1-0.6,1.4c0,0.1-0.2,0.2-0.3,0.2c-0.1,0-0.3-0.1-0.3-0.3c0,0,0-0.1,0.1-0.3
			c0.5-1.4,1.5-3.6,2.3-5.3c0-0.1,0.2-0.2,0.3-0.2h0c0.1,0,0.2,0.1,0.3,0.2c0.8,1.7,1.9,4.2,2.4,5.3c0.1,0.3,0.1,0.3,0.1,0.4
			c0,0.1-0.1,0.3-0.3,0.3c-0.1,0-0.2-0.1-0.3-0.2C12.4,125.7,12.2,125.2,12,124.7z M8.8,124.7H12c-0.4-1-1.2-2.7-1.6-3.6
			C9.9,122,9.2,123.7,8.8,124.7z"/>
		<path d="M20.2,124.1h-1.5v2c0,0.2-0.1,0.3-0.3,0.3c-0.1,0-0.3-0.1-0.3-0.3v-5.5c0-0.2,0.1-0.3,0.3-0.3h1.7c1.3,0,2.2,0.8,2.2,1.9
			c0,0.8-0.4,1.5-1.4,1.8l1.6,1.9c0,0,0.1,0.1,0.1,0.2c0,0.1-0.1,0.3-0.3,0.3c-0.1,0-0.2,0-0.2-0.1L20.2,124.1z M18.7,123.5h1.4
			c1,0,1.6-0.6,1.6-1.3c0-0.8-0.7-1.3-1.6-1.3h-1.4V123.5z"/>
		<path d="M29.3,120.9h-2.1c-0.1,0-0.3-0.1-0.3-0.3c0-0.2,0.1-0.3,0.3-0.3H32c0.2,0,0.3,0.1,0.3,0.3c0,0.1-0.1,0.3-0.3,0.3h-2.2v5.2
			c0,0.2-0.1,0.3-0.3,0.3c-0.1,0-0.3-0.1-0.3-0.3V120.9z"/>
		<path d="M43.8,120.6c0-0.2,0.1-0.3,0.3-0.3h1.6c0.7,0,1.1,0.2,1.4,0.5c0.2,0.3,0.4,0.7,0.4,1c0,0.4-0.2,0.8-0.4,1
			c0,0-0.1,0.1-0.2,0.1c0.2,0.1,0.5,0.2,0.6,0.4c0.3,0.3,0.5,0.7,0.5,1.2c0,0.4-0.1,0.8-0.5,1.1c-0.3,0.3-0.8,0.6-1.7,0.6h-1.7
			c-0.2,0-0.3-0.1-0.3-0.3V120.6z M46.9,121.8c0-0.2-0.1-0.5-0.3-0.6c-0.2-0.2-0.5-0.3-1-0.3h-1.3v2h1.4c0.4,0,0.7-0.2,0.9-0.4
			C46.8,122.3,46.9,122.1,46.9,121.8z M44.3,125.8h1.5c0.7,0,1-0.2,1.3-0.4c0.2-0.2,0.3-0.5,0.3-0.7c0-0.3-0.1-0.6-0.3-0.8
			c-0.3-0.3-0.7-0.4-1.2-0.4h-1.5V125.8z"/>
		<path d="M54.6,124.2c-0.5-0.7-1.8-2.6-2.3-3.4c0,0,0-0.1,0-0.1c0-0.1,0.1-0.3,0.3-0.3c0.1,0,0.2,0,0.2,0.1
			c0.4,0.7,1.5,2.4,2.1,3.2c0.6-0.9,1.6-2.5,2-3.2c0-0.1,0.1-0.1,0.2-0.1c0.2,0,0.3,0.1,0.3,0.3c0,0,0,0.1,0,0.1
			c-0.5,0.8-1.7,2.6-2.3,3.4v1.9c0,0.2-0.1,0.3-0.3,0.3c-0.1,0-0.3-0.1-0.3-0.3V124.2z"/>
		<path d="M72.9,124.7h-3.2c-0.2,0.5-0.4,1-0.6,1.4c0,0.1-0.2,0.2-0.3,0.2c-0.1,0-0.3-0.1-0.3-0.3c0,0,0-0.1,0.1-0.3
			c0.5-1.4,1.5-3.6,2.3-5.3c0-0.1,0.2-0.2,0.3-0.2h0c0.1,0,0.2,0.1,0.3,0.2c0.8,1.7,1.9,4.2,2.4,5.3C74,126,74,126,74,126
			c0,0.1-0.1,0.3-0.3,0.3c-0.1,0-0.2-0.1-0.3-0.2C73.3,125.7,73.1,125.2,72.9,124.7z M69.7,124.7h3.2c-0.4-1-1.2-2.7-1.6-3.6
			C70.8,122,70.1,123.7,69.7,124.7z"/>
		<path d="M83.4,123.4h-3.8v2.6c0,0.2-0.1,0.3-0.3,0.3c-0.1,0-0.3-0.1-0.3-0.3v-5.5c0-0.2,0.1-0.3,0.3-0.3c0.2,0,0.3,0.1,0.3,0.3
			v2.3h3.8v-2.3c0-0.2,0.1-0.3,0.3-0.3c0.2,0,0.3,0.1,0.3,0.3v5.5c0,0.2-0.1,0.3-0.3,0.3c-0.1,0-0.3-0.1-0.3-0.3V123.4z"/>
		<path d="M89.5,126v-5.5c0-0.2,0.1-0.3,0.3-0.3c0.2,0,0.3,0.1,0.3,0.3v5.2h2.8c0.2,0,0.3,0.1,0.3,0.3c0,0.1-0.1,0.3-0.3,0.3h-3.1
			C89.7,126.3,89.5,126.2,89.5,126z"/>
		<path d="M104.1,121.3c-0.8,1.5-1.6,3.3-2.1,4.7c0,0.1-0.1,0.2-0.2,0.2c-0.1,0-0.2-0.1-0.3-0.2c-0.7-1.4-1.6-3.3-2.2-4.7
			c-0.2,1.6-0.5,3.7-0.6,4.8c0,0.1-0.1,0.2-0.3,0.2c-0.1,0-0.3-0.1-0.3-0.3l0-0.3c0.1-1,0.5-3.7,0.7-5.3c0-0.1,0.2-0.2,0.3-0.2
			c0.1,0,0.2,0,0.2,0.1c0.1,0.1,0.1,0.2,0.2,0.3c0.6,1.3,1.5,3.1,2.2,4.6c0.6-1.5,1.5-3.4,2.3-4.8c0.1-0.1,0.2-0.1,0.3-0.1
			c0.1,0,0.3,0.1,0.3,0.2c0.4,1.8,0.7,4.2,0.8,4.8c0.1,0.7,0.1,0.9,0.1,0.9c0,0.2-0.1,0.3-0.3,0.3c-0.1,0-0.3-0.1-0.3-0.2
			C104.7,124.8,104.4,122.9,104.1,121.3z"/>
		<path d="M114.6,124.7h-3.2c-0.2,0.5-0.4,1-0.6,1.4c0,0.1-0.2,0.2-0.3,0.2c-0.1,0-0.3-0.1-0.3-0.3c0,0,0-0.1,0.1-0.3
			c0.5-1.4,1.5-3.6,2.3-5.3c0-0.1,0.2-0.2,0.3-0.2h0c0.1,0,0.2,0.1,0.3,0.2c0.8,1.7,1.9,4.2,2.4,5.3c0.1,0.3,0.1,0.3,0.1,0.4
			c0,0.1-0.1,0.3-0.3,0.3c-0.1,0-0.2-0.1-0.3-0.2C115.1,125.7,114.9,125.2,114.6,124.7z M111.5,124.7h3.2c-0.4-1-1.2-2.7-1.6-3.6
			C112.6,122,111.9,123.7,111.5,124.7z"/>
		<path d="M121.4,121.3v4.7c0,0.2-0.1,0.3-0.3,0.3c-0.1,0-0.3-0.1-0.3-0.3v-5.5c0-0.2,0.1-0.3,0.3-0.3c0.2,0,0.2,0,0.3,0.1
			c0.8,1,2.6,3.3,3.8,4.9v-4.7c0-0.2,0.1-0.3,0.3-0.3c0.2,0,0.3,0.1,0.3,0.3v5.5c0,0.2-0.1,0.3-0.3,0.3c-0.2,0-0.2,0-0.3-0.1
			C124.2,124.8,122.4,122.6,121.4,121.3z"/>
	</g>
</g>
</svg>
