<?xml version="1.0" encoding="UTF-8"?><svg id="Lager_1" xmlns="http://www.w3.org/2000/svg" viewBox="0 0 151.69 210.18"><defs><style>.cls-1{fill:#1d1d1b;}.cls-2{fill:none;stroke:#1d1d1b;stroke-miterlimit:10;}</style></defs><line class="cls-2" x1="104.75" y1="129.45" x2="136.62" y2="129.45"/><g><line class="cls-2" x1="66.37" y1="41.34" x2="51.23" y2="79.31"/><g><polyline class="cls-2" points="96.25 128.28 66.59 41 63.16 49.76"/><polygon class="cls-1" points="66.59 41 61.24 54.65 87.75 128.68 79.91 80.21 66.59 41"/><polygon class="cls-1" points="80.07 79.31 75.93 90.37 87.75 129.37 97.59 129.45 80.07 79.31"/><line class="cls-2" x1="76.86" y1="90.44" x2="84.57" y2="93.92"/></g></g><line class="cls-2" x1="81.01" y1="1.95" x2="68.44" y2="33.46"/><g><polyline class="cls-2" points="124.39 128.17 81.34 1.46 76.35 14.17"/><polygon class="cls-1" points="81.34 1.46 73.57 21.26 112.05 128.75 100.68 58.37 81.34 1.46"/><polygon class="cls-1" points="100.91 57.07 94.89 73.12 112.05 129.75 126.34 129.87 100.91 57.07"/><line class="cls-2" x1="96.25" y1="73.23" x2="107.44" y2="78.28"/></g><path class="cls-1" d="M45.98,127.72c-.44-.25-.86-.57-1.28-.93-.34-.21-.67-.46-.94-.78-1.67-1.97-2.43-4.22-2.47-6.73-.03-.21-.04-.42-.04-.64,0-.61,0-1.19,0-1.77-.9,1.82-1.87,3.6-2.97,5.32-.18,.29-.39,.54-.6,.77-.52,1.17-1.12,2.22-1.82,3.11-.86,1.1-1.93,1.91-3.23,2.44v1.36c1.34-.15,2.6-.27,3.79-.34,1.19-.08,2.41-.11,3.67-.11s2.57,.04,3.82,.11c1.25,.07,2.51,.19,3.76,.34v-1.36c-.46-.15-1.02-.42-1.69-.79Z"/><g><path class="cls-1" d="M5.5,154.85H1.42c-.27,.69-.52,1.33-.71,1.85-.06,.16-.22,.25-.36,.25-.17,0-.35-.16-.35-.38,0-.06,.01-.12,.14-.45,.65-1.75,1.9-4.62,2.89-6.83,.06-.13,.2-.22,.35-.22h.06c.14,0,.29,.07,.35,.2,1.04,2.24,2.46,5.41,3.02,6.84,.15,.35,.16,.42,.16,.46,0,.19-.17,.36-.36,.36-.15,0-.27-.09-.33-.23-.2-.52-.48-1.17-.78-1.87Zm-4.08,0H5.5c-.56-1.29-1.5-3.41-2.08-4.63-.54,1.23-1.46,3.34-2,4.63Z"/><path class="cls-1" d="M16.12,154.06h-1.94v2.52c0,.2-.16,.36-.36,.36-.19,0-.36-.17-.36-.36v-7.02c0-.2,.16-.36,.36-.36h2.13c1.69,0,2.76,1.03,2.76,2.43,0,1.04-.56,1.97-1.75,2.3l2.07,2.42c.06,.06,.09,.14,.09,.23,0,.17-.16,.36-.36,.36-.1,0-.2-.04-.27-.13l-2.36-2.75Zm-1.94-.72h1.77c1.33,0,2.04-.75,2.04-1.71,0-1.03-.84-1.71-2.04-1.71h-1.77v3.41Z"/><path class="cls-1" d="M27.76,149.93h-2.71c-.19,0-.36-.17-.36-.36,0-.2,.17-.36,.36-.36h6.19c.2,0,.36,.16,.36,.36,0,.19-.16,.36-.36,.36h-2.76v6.65c0,.2-.16,.36-.36,.36-.19,0-.36-.17-.36-.36v-6.65Z"/><path class="cls-1" d="M46.37,149.57c0-.2,.16-.36,.36-.36h2.01c.85,0,1.42,.29,1.78,.64,.32,.33,.54,.87,.54,1.33,0,.52-.22,1.01-.54,1.34-.06,.06-.13,.13-.22,.19,.32,.13,.59,.3,.81,.52,.43,.43,.64,.94,.64,1.52,0,.52-.19,1.06-.59,1.46-.43,.42-1.08,.74-2.18,.74h-2.24c-.2,0-.36-.16-.36-.36v-7.02Zm3.96,1.61c0-.29-.13-.61-.33-.81-.26-.26-.67-.43-1.26-.43h-1.65v2.53h1.78c.49-.03,.91-.25,1.13-.46,.2-.19,.33-.51,.33-.82Zm-3.24,5.05h1.88c.84,0,1.35-.2,1.66-.54,.26-.26,.39-.59,.39-.94,0-.38-.15-.71-.43-1-.35-.35-.94-.56-1.58-.56h-1.92v3.04Z"/><path class="cls-1" d="M60.29,154.15c-.65-.85-2.36-3.4-2.95-4.4-.03-.06-.04-.12-.04-.19,0-.17,.12-.35,.35-.35,.12,0,.25,.06,.3,.16,.55,.9,1.97,3.02,2.72,4.06,.8-1.13,2.11-3.18,2.63-4.06,.06-.1,.17-.16,.3-.16,.22,0,.35,.14,.35,.35,0,.06-.01,.13-.04,.19-.58,.97-2.16,3.4-2.89,4.43v2.4c0,.2-.16,.36-.36,.36-.19,0-.36-.17-.36-.36v-2.43Z"/><path class="cls-1" d="M83.71,154.85h-4.08c-.27,.69-.52,1.33-.71,1.85-.06,.16-.22,.25-.36,.25-.17,0-.35-.16-.35-.38,0-.06,.01-.12,.14-.45,.65-1.75,1.9-4.62,2.89-6.83,.06-.13,.2-.22,.35-.22h.06c.14,0,.29,.07,.35,.2,1.04,2.24,2.46,5.41,3.02,6.84,.15,.35,.16,.42,.16,.46,0,.19-.17,.36-.36,.36-.15,0-.27-.09-.33-.23-.2-.52-.48-1.17-.78-1.87Zm-4.08,0h4.08c-.56-1.29-1.5-3.41-2.08-4.63-.54,1.23-1.46,3.34-2,4.63Z"/><path class="cls-1" d="M97.24,153.18h-4.85v3.4c0,.2-.16,.36-.36,.36-.19,0-.36-.17-.36-.36v-7.02c0-.2,.17-.36,.36-.36,.2,0,.36,.16,.36,.36v2.89h4.85v-2.89c0-.2,.17-.36,.36-.36,.2,0,.36,.16,.36,.36v7.02c0,.2-.16,.36-.36,.36-.19,0-.36-.17-.36-.36v-3.4Z"/><path class="cls-1" d="M105.14,156.58v-7.02c0-.2,.17-.36,.36-.36,.2,0,.36,.16,.36,.36v6.65h3.56c.2,0,.36,.16,.36,.36,0,.19-.16,.36-.36,.36h-3.92c-.19,0-.36-.17-.36-.36Z"/><path class="cls-1" d="M123.81,150.48c-.97,1.95-2.01,4.22-2.73,5.97-.06,.14-.16,.25-.32,.25-.14,0-.29-.07-.35-.2-.85-1.78-2-4.2-2.86-6-.32,2.04-.67,4.73-.82,6.16-.01,.17-.19,.32-.38,.32s-.35-.16-.35-.38l.04-.42c.15-1.29,.58-4.73,.94-6.8,.03-.17,.2-.3,.38-.3,.12,0,.2,.04,.26,.12,.07,.07,.17,.22,.23,.35,.8,1.62,1.94,3.98,2.88,5.9,.82-1.9,1.91-4.33,2.91-6.19,.09-.14,.2-.19,.33-.19,.17,0,.35,.12,.38,.29,.46,2.27,.93,5.45,1.03,6.1,.14,.96,.16,1.1,.16,1.16,0,.2-.16,.36-.36,.36-.17,0-.33-.13-.36-.32-.22-1.65-.61-4.09-1-6.18Z"/><path class="cls-1" d="M137.38,154.85h-4.08c-.28,.69-.52,1.33-.71,1.85-.06,.16-.22,.25-.36,.25-.17,0-.35-.16-.35-.38,0-.06,.01-.12,.14-.45,.65-1.75,1.9-4.62,2.89-6.83,.06-.13,.2-.22,.35-.22h.06c.14,0,.29,.07,.35,.2,1.04,2.24,2.46,5.41,3.02,6.84,.14,.35,.16,.42,.16,.46,0,.19-.17,.36-.36,.36-.14,0-.27-.09-.33-.23-.2-.52-.48-1.17-.78-1.87Zm-4.08,0h4.08c-.56-1.29-1.5-3.41-2.08-4.63-.54,1.23-1.46,3.34-2,4.63Z"/><path class="cls-1" d="M146.06,150.52v6.06c0,.2-.16,.36-.36,.36-.19,0-.36-.17-.36-.36v-7.02c0-.2,.17-.36,.35-.36,.22,0,.32,.04,.39,.14,.97,1.29,3.3,4.2,4.89,6.28v-6.06c0-.2,.17-.36,.36-.36,.2,0,.36,.16,.36,.36v7.02c0,.2-.16,.36-.35,.36-.2,0-.32-.04-.39-.14-1.33-1.78-3.59-4.6-4.89-6.28Z"/></g></svg>